<svg width="74" height="44" viewBox="0 0 74 44" fill="none" xmlns="http://www.w3.org/2000/svg">
<path d="M73.991 25.2043C73.8601 28.3279 74.3183 31.7253 73.0921 35.0314C70.7488 41.3438 63.6667 45.1842 57.1387 43.6072C54.4595 42.9599 52.4566 41.4176 50.8595 39.2628C50.17 38.3331 49.5548 37.3469 48.8173 36.4607C47.0632 34.3536 44.7417 33.8019 42.1759 34.8272C41.5737 35.0704 40.9541 35.3007 40.3956 35.6222C38.1003 36.9429 35.8836 36.8212 33.6101 35.5092C31.4851 34.2798 29.2945 33.8931 27.0647 35.3876C26.1266 36.0175 25.4764 36.8864 24.9397 37.8161C21.4444 43.8331 16.195 44.8671 10.1732 43.416C4.67943 42.091 0.499091 36.995 0.184911 31.1257C-0.0419966 26.8769 -0.103087 22.5847 0.250365 18.3489C0.721635 12.6751 3.83725 8.59135 9.29176 6.77539C12.4685 5.7197 15.9506 5.78921 19.267 5.25051C24.416 4.41638 30.0145 5.11149 34.3738 1.17981C35.9316 -0.223431 37.9039 -0.440651 39.5752 0.88439C44.2704 4.59885 49.9693 4.39466 55.4326 5.21575C58.4042 5.66323 61.3845 5.88045 64.3561 6.62334C70.0288 8.04396 74.039 14.1435 73.9997 19.5349C73.9866 21.3422 73.9997 23.1451 73.9997 25.2L73.991 25.2043ZM6.62123 33.0025C9.72812 39.6755 16.3914 38.8979 19.5462 33.4543C22.147 28.9666 25.5767 24.9524 28.1556 20.4516C30.5687 16.2418 33.968 15.0428 38.5148 15.1992C41.6828 15.3078 43.7861 16.6111 45.4617 19.1439C48.8915 24.3224 52.4173 29.4401 55.9169 34.5752C57.4005 36.7474 60.9351 38.5547 62.6543 38.0594C65.6565 37.1949 67.9038 34.3406 67.9561 31.1475C68.0172 27.5329 68.0085 23.9184 67.9823 20.3082C67.9517 16.2288 66.215 14.0566 62.1787 13.1356C55.6944 11.6542 49.197 10.2379 42.7039 8.79554C39.7105 7.67468 36.6079 8.54356 33.5665 8.30896C32.9818 8.26552 32.2269 8.00486 31.8342 8.79554C25.4327 10.2205 19.0488 11.7063 12.6299 13.04C9.17394 13.7568 7.1405 15.6858 6.52523 19.1265C6.39869 19.3698 6.15869 19.6087 6.15433 19.852C6.12815 23.9444 6.12815 28.0412 6.12815 32.1336C6.12815 32.5073 6.21978 32.8418 6.61687 32.9982L6.62123 33.0025ZM37.6945 19.7391C37.4894 19.7825 37.2799 19.8303 37.0749 19.8737C37.0749 23.8054 37.0661 27.7415 37.0836 31.6731C37.0836 32.264 37.4981 32.7332 38.0741 32.4682C39.7061 31.7122 41.3163 30.8998 42.8523 29.9788C43.3759 29.666 43.2494 28.9579 42.9134 28.4061C41.1679 25.5215 39.4312 22.6281 37.6901 19.7434L37.6945 19.7391Z" fill="black"/>
</svg>
