<svg width="183" height="86" viewBox="0 0 183 86" fill="none" xmlns="http://www.w3.org/2000/svg">
<path fill-rule="evenodd" clip-rule="evenodd" d="M149.719 56.8113C152.631 56.8113 154.988 59.078 154.988 61.8909C154.988 64.6905 152.631 66.9571 149.719 66.9571C146.797 66.9571 144.426 64.6905 144.426 61.8909C144.426 59.078 146.797 56.8113 149.719 56.8113ZM131.626 56.8113C134.548 56.8113 136.906 59.078 136.906 61.8909C136.906 64.6905 134.548 66.9704 131.626 66.9704C128.715 66.9704 126.343 64.6905 126.343 61.8909C126.345 59.078 128.718 56.8113 131.626 56.8113ZM113.919 56.8113C116.827 56.8113 119.195 59.078 119.195 61.8909C119.195 64.6905 116.825 66.9704 113.919 66.9704C110.997 66.9704 108.636 64.6905 108.636 61.8909C108.636 59.078 110.997 56.8113 113.919 56.8113ZM124.704 38.7953L102.889 48.2976H15.3259C10.9303 48.2976 9.53025 48.7133 7.6497 52.1564L2.24944 62.0833C0.120605 66.0107 0.59649 66.8178 1.87701 69.9734L6.47493 81.3288C7.6635 84.2545 9.49117 85.5791 13.7672 85.5791H148.535C152.39 85.5791 155.144 84.4977 156.988 81.6627L182.134 45.6926C184.06 42.9284 181.978 38.7931 178.685 38.7931H124.704V38.7953Z" fill="#CFCECE"/>
<path fill-rule="evenodd" clip-rule="evenodd" d="M77.8279 18.769C81.7453 18.7557 84.1776 18.6518 87.2168 21.3717L91.3136 25.4937C92.7136 26.7498 91.8147 27.6498 90.5595 27.6498L53.3187 27.6609C52.4565 27.6609 51.8933 27.223 52.3485 26.2434L55.282 20.056C55.7602 19.0564 56.5993 18.8043 57.6177 18.7911L77.8279 18.769ZM53.7256 0.085083C52.1692 0.085083 51.5209 1.07578 51.7025 2.41145L52.8911 11.1198H25.0368C21.301 11.1198 19.3952 17.0176 24.0069 19.0653L35.2373 24.0785L27.0714 39.3281C25.9334 41.4311 27.0829 43.1626 28.8439 43.1626H100.289L113.402 37.4484C116.287 36.1946 116.563 32.6099 112.682 30.9846L101.946 26.4844L92.6286 16.7632C87.8169 11.7412 83.2672 11.1176 76.0117 11.1176H69.9631L61.4386 1.57112C60.7673 0.834736 59.5557 0.085083 58.1419 0.085083H53.7256Z" fill="#CFCECE"/>
</svg>
