<svg width="61" height="48" viewBox="0 0 61 48" fill="none" xmlns="http://www.w3.org/2000/svg">
<path d="M2 45.7417V30.4321C2.00685 28.114 2.93075 25.8928 4.5699 24.2537C6.20905 22.6145 8.43024 21.6906 10.7483 21.6838H50.1159C52.434 21.6906 54.6552 22.6145 56.2943 24.2537C57.9335 25.8928 58.8574 28.114 58.8642 30.4321V45.7417M47.9288 21.6838H8.56126V7.46771C8.56558 6.01892 9.14303 4.63069 10.1675 3.60624C11.192 2.58178 12.5802 2.00433 14.029 2H46.8353C48.2841 2.00433 49.6723 2.58178 50.6967 3.60624C51.7212 4.63069 52.2986 6.01892 52.303 7.46771V21.6838H47.9288Z" stroke="black" stroke-width="3" stroke-linecap="round" stroke-linejoin="round"/>
<path d="M2 45.7417V44.6482C2.00252 43.7789 2.34897 42.9459 2.96366 42.3312C3.57835 41.7165 4.41133 41.3701 5.28063 41.3675H55.5836C56.4529 41.3701 57.2859 41.7165 57.9006 42.3312C58.5153 42.9459 58.8617 43.7789 58.8642 44.6482V45.7417M10.7483 21.6838V19.4967C10.7516 18.3376 11.2135 17.2269 12.0331 16.4073C12.8527 15.5877 13.9634 15.1258 15.1225 15.1225H26.0579C27.217 15.1258 28.3277 15.5877 29.1474 16.4073C29.967 17.2269 30.4289 18.3376 30.4321 19.4967M30.4321 19.4967V21.6838M30.4321 19.4967C30.4354 18.3376 30.8972 17.2269 31.7169 16.4073C32.5365 15.5877 33.6472 15.1258 34.8063 15.1225H45.7417C46.9008 15.1258 48.0115 15.5877 48.8311 16.4073C49.6507 17.2269 50.1126 18.3376 50.1159 19.4967V21.6838" stroke="black" stroke-width="3" stroke-linecap="round" stroke-linejoin="round"/>
</svg>
