<svg width="99" height="121" viewBox="0 0 99 121" fill="none" xmlns="http://www.w3.org/2000/svg">
<path d="M95.086 0H3.56038C1.5941 0 0 1.57667 0 3.52145V116.677C0 117.898 0.63897 119.031 1.68857 119.673C2.73841 120.315 4.04911 120.373 5.15282 119.827L49.3232 97.9835L93.4938 119.827C93.9963 120.076 94.5417 120.199 95.086 120.199C95.7368 120.199 96.3863 120.022 96.9581 119.673C98.0077 119.031 98.6466 117.898 98.6466 116.677V3.52145C98.6464 1.57667 97.052 0 95.086 0ZM74.69 45.1176L64.5901 54.8548L66.9414 68.4127C66.9998 68.6658 67.0306 68.9289 67.0306 69.1996C67.0306 71.142 65.4403 72.7173 63.4769 72.7211C63.4729 72.7211 63.4691 72.7211 63.465 72.7211C62.8982 72.7211 62.3298 72.5875 61.8087 72.3166L49.3232 65.8258L36.8381 72.3166C36.3173 72.5872 35.7484 72.7211 35.1818 72.7211C34.4436 72.7211 33.709 72.4943 33.0886 72.0485C31.9924 71.2604 31.4432 69.9253 31.6725 68.6042L34.0575 54.8551L23.9564 45.1178C22.9858 44.1823 22.6364 42.7826 23.0554 41.5078C23.4743 40.2328 24.5885 39.3036 25.9296 39.1111L39.8884 37.1048L46.13 24.5945C46.7298 23.3925 47.9674 22.6314 49.3227 22.6314C50.678 22.6314 51.9159 23.3923 52.5154 24.5943L58.7582 37.1048L72.7163 39.1111C74.0574 39.3036 75.1718 40.2328 75.5905 41.5076C76.0097 42.7824 75.6603 44.1818 74.69 45.1176Z" fill="#CFCECE"/>
</svg>
