<svg width="27" height="22" viewBox="0 0 27 22" fill="none" xmlns="http://www.w3.org/2000/svg">
<path d="M1 20.7938V13.866C1.00305 12.817 1.41455 11.8119 2.14461 11.0701C2.87467 10.3284 3.86397 9.91032 4.89642 9.90722H22.4303C23.4628 9.91032 24.4521 10.3284 25.1821 11.0701C25.9122 11.8119 26.3237 12.817 26.3267 13.866V20.7938M21.4562 9.90722H3.92232V3.47423C3.92424 2.81862 4.18143 2.19043 4.63772 1.72685C5.094 1.26326 5.7123 1.00196 6.35758 1H20.9692C21.6144 1.00196 22.2327 1.26326 22.689 1.72685C23.1453 2.19043 23.4025 2.81862 23.4044 3.47423V9.90722H21.4562Z" stroke="white" stroke-width="1.33617" stroke-linecap="round" stroke-linejoin="round"/>
<path d="M1 20.7937V20.2988C1.00112 19.9054 1.15543 19.5285 1.42921 19.2504C1.70298 18.9722 2.07398 18.8154 2.46116 18.8143H24.8656C25.2528 18.8154 25.6238 18.9722 25.8975 19.2504C26.1713 19.5285 26.3256 19.9054 26.3267 20.2988V20.7937M4.89642 9.90706V8.91737C4.89787 8.39286 5.10359 7.89025 5.46864 7.51936C5.83368 7.14847 6.32838 6.93946 6.84463 6.93799H11.7152C12.2314 6.93946 12.7261 7.14847 13.0912 7.51936C13.4562 7.89025 13.6619 8.39286 13.6634 8.91737M13.6634 8.91737V9.90706M13.6634 8.91737C13.6648 8.39286 13.8705 7.89025 14.2356 7.51936C14.6006 7.14847 15.0953 6.93946 15.6116 6.93799H20.4821C20.9984 6.93946 21.4931 7.14847 21.8581 7.51936C22.2232 7.89025 22.4289 8.39286 22.4303 8.91737V9.90706" stroke="white" stroke-width="1.33617" stroke-linecap="round" stroke-linejoin="round"/>
</svg>
