<svg width="41" height="41" viewBox="0 0 41 41" fill="none" xmlns="http://www.w3.org/2000/svg">
<path d="M20.4731 0.0537415C9.1661 0.0537415 0 9.21984 0 20.5269C0 31.8339 9.1661 41 20.4731 41C31.7802 41 40.9463 31.8339 40.9463 20.5269C40.9463 9.21984 31.7802 0.0537415 20.4731 0.0537415ZM28.2837 10.4799L25.452 10.4811C23.2315 10.4811 22.8022 11.5363 22.8022 13.0845V16.4984H28.0973L28.0948 21.8455H22.8026V35.5675H17.2795V21.8455H12.6626V16.4984H17.2795V12.555C17.2795 7.97868 20.0756 5.4863 24.1577 5.4863L28.2841 5.49258L28.2837 10.4799Z" fill="#053A55"/>
</svg>
