<svg width="40" height="40" viewBox="0 0 40 40" fill="none" xmlns="http://www.w3.org/2000/svg">
<path d="M19.5383 0.92334C8.74757 0.92334 0 9.67091 0 20.4617C0 31.2524 8.74757 40 19.5383 40C30.3291 40 39.0767 31.2524 39.0767 20.4617C39.0767 9.67091 30.3291 0.92334 19.5383 0.92334ZM26.9923 10.8734L24.2899 10.8746C22.1708 10.8746 21.761 11.8816 21.761 13.3591V16.6172H26.8144L26.812 21.7201H21.7614V34.8155H16.4906V21.7201H12.0844V16.6172H16.4906V12.8538C16.4906 8.48642 19.159 6.10784 23.0546 6.10784L26.9927 6.11384L26.9923 10.8734Z" fill="white"/>
</svg>
