<svg width="48" height="48" viewBox="0 0 48 48" fill="none" xmlns="http://www.w3.org/2000/svg">
<path d="M4.50278 3.54596L40.6886 39.7317C41.3752 40.4184 41.7609 41.3497 41.7609 42.3207C41.7609 43.2918 41.3752 44.223 40.6886 44.9097C40.0018 45.5961 39.0705 45.9816 38.0996 45.9816C37.1286 45.9816 36.1974 45.5961 35.5106 44.9097L26.6711 35.918C26.0927 35.3306 25.7682 34.5394 25.7676 33.715V33.1719C25.7676 32.7556 25.685 32.3435 25.5245 31.9594C25.364 31.5753 25.1288 31.2269 24.8325 30.9345L23.6913 29.8807C23.3038 29.5232 22.8327 29.2689 22.3212 29.1412C21.8098 29.0135 21.2744 29.0165 20.7644 29.1499C19.9602 29.3598 19.1151 29.3558 18.3129 29.1382C17.5107 28.9206 16.7794 28.497 16.1915 27.9095L7.80088 19.5179C2.82328 14.5403 0.99155 7.02379 4.50278 3.54596Z" stroke="black" stroke-width="3" stroke-linejoin="round"/>
<path d="M38.1427 2L30.5555 9.5872C29.9717 10.1709 29.5085 10.8639 29.1926 11.6266C28.8766 12.3894 28.714 13.2069 28.714 14.0325V15.492C28.714 15.6984 28.6733 15.9029 28.5943 16.0937C28.5152 16.2845 28.3994 16.4578 28.2533 16.6038L27.1425 17.7146M30.2854 20.8575L31.3962 19.7467C31.5422 19.6006 31.7155 19.4848 31.9063 19.4057C32.0971 19.3267 32.3016 19.286 32.508 19.286H33.9675C34.7931 19.286 35.6106 19.1234 36.3734 18.8074C37.1361 18.4915 37.8291 18.0283 38.4128 17.4445L46 9.85729M42.0714 5.92865L34.2141 13.7859M18.4995 35.0006L8.70536 44.8497C7.96863 45.5863 6.96954 46 5.92781 46C4.88607 46 3.88698 45.5863 3.15025 44.8497C2.41375 44.113 2 43.1139 2 42.0722C2 41.0305 2.41375 40.0314 3.15025 39.2946L11.4279 31.072" stroke="black" stroke-width="3" stroke-linecap="round" stroke-linejoin="round"/>
</svg>
