<svg width="113" height="113" viewBox="0 0 113 113" fill="none" xmlns="http://www.w3.org/2000/svg">
<path d="M71.4504 39.4426C70.4647 39.4426 69.5012 39.1503 68.6816 38.6027C67.8621 38.0551 67.2233 37.2768 66.8462 36.3662C66.469 35.4555 66.3703 34.4535 66.5626 33.4868C66.7548 32.5201 67.2295 31.6321 67.9265 30.9351C68.6234 30.2382 69.5114 29.7635 70.4781 29.5712C71.4448 29.3789 72.4469 29.4776 73.3575 29.8548C74.2681 30.232 75.0464 30.8708 75.594 31.6903C76.1416 32.5099 76.4339 33.4734 76.4339 34.459C76.4339 35.7808 75.9089 37.0483 74.9743 37.9829C74.0397 38.9175 72.7721 39.4426 71.4504 39.4426Z" fill="white"/>
<path d="M79.3151 22H60.1704C59.5753 21.9996 59.0042 22.2347 58.5819 22.6541L20.3082 60.9185C19.4704 61.7605 19 62.8999 19 64.0877C19 65.2755 19.4704 66.415 20.3082 67.257L38.5293 85.4781C39.3716 86.3161 40.5113 86.7864 41.6993 86.7864C42.8874 86.7864 44.0271 86.3161 44.8694 85.4781L83.1322 47.2293C83.5516 46.807 83.7867 46.2359 83.7863 45.6408V26.4852C83.7892 25.8966 83.6756 25.3132 83.4521 24.7686C83.2286 24.2241 82.8996 23.7291 82.484 23.3122C82.0684 22.8954 81.5745 22.5648 81.0306 22.3396C80.4868 22.1144 79.9037 21.999 79.3151 22Z" stroke="white" stroke-width="4.98356" stroke-linecap="round" stroke-linejoin="round"/>
<path d="M51.877 91.2945L92.6799 50.4916C92.8827 50.287 93.0424 50.0437 93.1494 49.7762C93.2564 49.5086 93.3086 49.2223 93.3028 48.9342V29" stroke="white" stroke-width="4.98356" stroke-linecap="round" stroke-linejoin="round"/>
<circle cx="56.5" cy="56.5" r="55" stroke="white" stroke-width="3"/>
</svg>
