<svg width="40" height="39" viewBox="0 0 40 39" fill="none" xmlns="http://www.w3.org/2000/svg">
<path d="M24.1953 11.0269H15.9619C13.6168 11.0269 11.7029 12.9322 11.7029 15.2858V23.5193C11.7029 25.8643 13.6082 27.7783 15.9619 27.7783H24.1953C26.5404 27.7783 28.4543 25.873 28.4543 23.5193V15.2858C28.4457 12.9322 26.5404 11.0269 24.1953 11.0269ZM20.0743 24.9074C17.0395 24.9074 14.5652 22.433 14.5652 19.3983C14.5652 16.3635 17.0395 13.8892 20.0743 13.8892C23.109 13.8892 25.5834 16.3635 25.5834 19.3983C25.5834 22.433 23.109 24.9074 20.0743 24.9074ZM25.8593 14.5013C25.342 14.5013 24.9282 14.0875 24.9282 13.5702C24.9282 13.0529 25.342 12.6391 25.8593 12.6391C26.3766 12.6391 26.7904 13.0529 26.7904 13.5702C26.7904 14.0875 26.3766 14.5013 25.8593 14.5013Z" fill="white"/>
<path d="M23.4232 19.4393C23.4454 17.5918 21.9657 16.0762 20.1183 16.054C18.2708 16.0318 16.7552 17.5115 16.733 19.359C16.7108 21.2064 18.1905 22.7221 20.038 22.7442C21.8854 22.7664 23.4011 21.2867 23.4232 19.4393Z" fill="white"/>
<path d="M20.0744 0C9.35793 0 0.676147 8.68178 0.676147 19.3982C0.676147 30.1147 9.35793 38.7964 20.0744 38.7964C30.7908 38.7964 39.4726 30.1147 39.4726 19.3982C39.4726 8.68178 30.7908 0 20.0744 0ZM30.8512 23.5193C30.8512 27.192 27.8681 30.175 24.1954 30.175H15.9619C12.2892 30.175 9.3062 27.192 9.3062 23.5193V15.2858C9.3062 11.6131 12.2892 8.63005 15.9619 8.63005H24.1954C27.8681 8.63005 30.8512 11.6131 30.8512 15.2858V23.5193Z" fill="white"/>
</svg>
