<svg width="41" height="41" viewBox="0 0 41 41" fill="none" xmlns="http://www.w3.org/2000/svg">
<path d="M24.6693 11.6884H16.0419C13.5846 11.6884 11.5791 13.6849 11.5791 16.1512V24.7786C11.5791 27.2358 13.5756 29.2413 16.0419 29.2413H24.6693C27.1265 29.2413 29.132 27.2448 29.132 24.7786V16.1512C29.123 13.6849 27.1265 11.6884 24.6693 11.6884ZM20.351 26.233C17.1711 26.233 14.5784 23.6403 14.5784 20.4604C14.5784 17.2804 17.1711 14.6877 20.351 14.6877C23.531 14.6877 26.1237 17.2804 26.1237 20.4604C26.1237 23.6403 23.531 26.233 20.351 26.233ZM26.4128 15.3291C25.8708 15.3291 25.4371 14.8955 25.4371 14.3534C25.4371 13.8114 25.8708 13.3778 26.4128 13.3778C26.9548 13.3778 27.3885 13.8114 27.3885 14.3534C27.3885 14.8955 26.9548 15.3291 26.4128 15.3291Z" fill="#053A55"/>
<path d="M23.861 20.5033C23.8842 18.5674 22.3337 16.9793 20.3979 16.9561C18.462 16.9328 16.8739 18.4833 16.8507 20.4192C16.8274 22.355 18.3779 23.9431 20.3138 23.9664C22.2496 23.9896 23.8377 22.4391 23.861 20.5033Z" fill="#053A55"/>
<path d="M20.3517 0.134064C9.12255 0.134064 0.0253906 9.23122 0.0253906 20.4604C0.0253906 31.6896 9.12255 40.7867 20.3517 40.7867C31.5809 40.7867 40.678 31.6896 40.678 20.4604C40.678 9.23122 31.5809 0.134064 20.3517 0.134064ZM31.6441 24.7786C31.6441 28.6271 28.5184 31.7528 24.6699 31.7528H16.0425C12.1941 31.7528 9.06835 28.6271 9.06835 24.7786V16.1512C9.06835 12.3028 12.1941 9.17702 16.0425 9.17702H24.6699C28.5184 9.17702 31.6441 12.3028 31.6441 16.1512V24.7786Z" fill="#053A55"/>
</svg>
