<svg width="175" height="89" viewBox="0 0 175 89" fill="none" xmlns="http://www.w3.org/2000/svg">
<path d="M45.349 27.1739C52.6186 27.933 59.8857 28.72 67.1627 29.4071C68.651 29.5478 69.8374 29.9241 70.5985 31.2444C70.7003 31.4211 70.941 31.5528 70.8219 31.7974C70.7011 32.046 70.4455 31.9577 70.2428 31.9544C69.5636 31.9438 68.8852 31.9119 68.2068 31.8947C58.4884 31.655 48.77 31.4162 39.0085 31.1765C39.3601 31.4031 39.7126 31.3974 40.0584 31.435C44.6557 31.9438 49.2539 32.4518 53.8505 32.968C60.1016 33.6706 66.3478 34.4289 72.6072 35.0457C73.8341 35.1668 74.3835 35.8318 74.9692 36.6523C75.2588 37.0581 75.042 37.2004 74.6449 37.2119C74.3057 37.2217 73.9657 37.1996 73.6265 37.1996C66.4694 37.1988 59.3124 37.1996 52.9355 37.1996C61.9043 38.3988 71.6707 39.7044 81.6158 41.0345C78.8443 36.9501 76.1928 33.0645 73.5669 29.1617C72.3111 27.295 70.5952 26.3224 68.3168 26.2594C64.1521 26.1432 59.9883 25.9829 55.8236 25.852C46.9391 25.5722 38.0546 25.299 29.1702 25.0225C27.5569 24.818 25.9403 24.8213 24.3138 25.0176C25.0692 25.0781 25.8253 25.1387 26.5807 25.1992C32.8376 25.8585 39.0937 26.5228 45.3507 27.1764L45.349 27.1739Z" fill="white"/>
<path d="M101.488 29.201C98.9703 32.9581 96.409 36.6858 93.8757 40.4324C93.7756 40.5796 93.5241 40.7048 93.6946 41.0058C103.435 39.7019 113.184 38.3963 122.111 37.2012C115.729 37.2012 108.541 37.2012 101.355 37.2012C101.015 37.2012 100.675 37.2225 100.337 37.2077C100.11 37.1979 99.901 37.1333 99.9772 36.8216C100.125 36.2179 101.398 35.1864 102.075 35.1128C105.048 34.7905 108.019 34.4698 110.99 34.1369C119.137 33.224 127.283 32.3045 135.43 31.3875C135.762 31.4162 136.098 31.4579 136.468 31.0595C135.599 31.1274 134.881 31.1838 134.163 31.2403C127.566 31.3957 120.968 31.5479 114.372 31.7066C111.227 31.7826 108.083 31.8759 104.939 31.947C104.674 31.9528 104.261 32.1319 104.217 31.6468C104.186 31.2984 105.908 29.6558 106.313 29.6132C108.059 29.4267 109.806 29.2451 111.553 29.0627C117.652 28.4271 123.75 27.7948 129.849 27.1567C136.1 26.5031 142.351 25.8446 148.602 25.1877L150.81 25.0021C149.139 24.8164 147.485 24.8164 145.837 25.0209C143.863 25.0798 141.89 25.1362 139.917 25.1992C128.879 25.5526 117.842 25.9158 106.804 26.2544C104.492 26.3256 102.763 27.2991 101.489 29.2001L101.488 29.201Z" fill="white"/>
<path d="M107.589 21.379C102.218 20.7925 96.8267 20.5487 91.4268 20.4506C89.735 20.4203 88.7952 19.5123 88.748 17.8501C88.6429 14.1314 88.547 10.4126 88.2318 6.70455C88.063 4.71676 87.8322 2.73469 87.6196 0.661011C87.2713 0.92605 87.3482 1.18863 87.3184 1.4095C86.6102 6.76836 86.3918 12.1583 86.257 17.554C86.2065 19.59 85.3627 20.4252 83.3176 20.4579C79.1827 20.5234 75.0519 20.705 70.9311 21.0395C69.2541 21.1762 67.5647 21.2678 65.8051 21.6498C71.712 22.4114 77.5371 22.6298 83.3664 22.7819C85.404 22.8351 86.2255 23.6073 86.2901 25.6156C86.3918 28.7854 86.5019 31.9536 86.7625 35.1152C86.9263 37.1047 87.1058 39.0925 87.4955 41.0696C87.608 40.8226 87.6576 40.5714 87.6907 40.3179C88.3128 35.5349 88.5652 30.7274 88.6934 25.91C88.7571 23.5222 89.4851 22.8384 91.8901 22.7762C97.6226 22.6273 103.35 22.4106 109.274 21.6359C108.56 21.5255 108.077 21.4322 107.589 21.379Z" fill="white"/>
<path d="M40.472 61.0359C39.7953 61.0228 39.8251 61.3688 39.8267 61.8252C39.8358 64.4159 39.8309 67.0066 39.8309 69.6962C37.4499 67.0319 35.1003 64.4519 32.8194 61.8146C32.2411 61.1455 31.6595 60.9009 30.6767 61.1708C32.1055 62.0829 31.7605 63.4515 31.7671 64.7227C31.7787 66.9788 31.7704 69.2357 31.7704 71.4918C31.7704 71.9057 31.6546 72.3139 32.3743 72.3131C33.0759 72.3123 32.9973 71.9335 32.9965 71.5008C32.9923 68.9518 32.9948 66.4021 32.9948 63.7034C35.6588 66.6794 38.2424 69.5637 40.8253 72.4489C41.009 68.8259 41.0106 65.3247 41.0065 61.8244C41.0065 61.4596 41.1579 61.0481 40.472 61.035V61.0359Z" fill="white"/>
<path d="M8.36331 64.065C8.11263 62.4257 6.7393 61.2772 4.90267 61.2314C3.48383 61.1954 2.06417 61.2248 0.644503 61.2167C0.284623 61.2142 -0.003281 61.1905 2.82441e-05 61.7148C0.0198837 65.1301 0.0198837 68.5453 2.82441e-05 71.9606C-0.003281 72.4914 0.300342 72.435 0.649467 72.4538C1.05485 72.4759 1.27988 72.4088 1.25671 71.9213C1.21783 71.1 1.24596 70.2754 1.24596 69.4517C1.24596 67.7445 1.24678 67.7821 3.01144 67.7281C3.75188 67.7052 4.19118 67.9228 4.54196 68.5772C5.10288 69.6251 5.82264 70.5904 6.36618 71.6456C6.803 72.4939 7.39783 72.5896 8.26072 72.3344C7.33496 70.808 6.4365 69.3257 5.48758 67.76C5.68365 67.6856 5.79782 67.6406 5.91364 67.5997C7.57984 67.0107 8.58916 65.5538 8.36165 64.065H8.36331ZM1.64638 66.7399C1.30304 66.7555 1.24348 66.5534 1.2443 66.2753C1.24844 65.0884 1.25671 63.9014 1.23934 62.7145C1.23355 62.2997 1.42466 62.195 1.80025 62.2081C2.32311 62.2269 2.84763 62.213 3.37049 62.213C4.1068 62.2294 4.84724 62.1549 5.5761 62.3447C6.55398 62.5991 7.28532 63.4908 7.29277 64.4626C7.30021 65.4377 6.59203 66.3604 5.6034 66.5927C4.2979 66.9003 2.96511 66.6786 1.64638 66.7391V66.7399Z" fill="white"/>
<path d="M158.47 61.0988C158.022 61.0956 157.797 61.1725 157.818 61.6927C157.858 62.6964 157.808 63.7042 157.838 64.7088C157.852 65.1791 157.709 65.3534 157.218 65.3362C156.294 65.3043 155.368 65.3125 154.443 65.3313C153.437 65.3517 152.326 65.0082 151.632 66.2164C151.569 66.1583 151.505 66.1002 151.442 66.0421C151.442 64.6433 151.439 63.2445 151.444 61.8457C151.446 61.444 151.515 61.0923 150.867 61.0866C150.227 61.0808 150.189 61.3647 150.191 61.8563C150.205 65.117 150.205 68.3776 150.191 71.639C150.189 72.1299 150.224 72.4219 150.866 72.4153C151.513 72.4088 151.444 72.0538 151.443 71.6505C151.438 70.0963 151.459 68.542 151.432 66.9878C151.423 66.5117 151.567 66.3734 152.051 66.3816C153.777 66.4103 155.505 66.4127 157.231 66.3808C157.742 66.371 157.844 66.5542 157.838 67.0082C157.815 68.623 157.843 70.2386 157.82 71.8534C157.814 72.3196 158.011 72.4162 158.427 72.4006C158.798 72.3875 159.077 72.3965 159.074 71.8885C159.059 68.4758 159.059 65.0622 159.074 61.6494C159.077 61.1856 158.884 61.1021 158.469 61.0988H158.47Z" fill="white"/>
<path d="M142.643 70.1175C142.776 69.9237 143.111 69.6774 142.651 69.4721C142.362 69.3429 142.124 68.9273 141.736 69.4271C140.764 70.6762 139.47 71.3495 137.851 71.4059C134.611 71.5196 132.071 68.6304 132.883 65.6667C133.371 63.8875 134.573 62.6874 136.394 62.2555C138.449 61.7688 140.264 62.2964 141.617 63.9431C142.023 64.4372 142.29 64.2818 142.656 64.0339C143.167 63.6871 142.689 63.4368 142.52 63.2437C141.242 61.7893 139.641 60.986 137.658 61.0113C134.861 61.0195 132.434 62.8232 131.753 65.3976C131.06 68.0177 132.485 70.776 135.153 71.9769C137.698 73.1229 141.165 72.2665 142.643 70.1175Z" fill="white"/>
<path d="M23.3707 71.8574C23.3914 71.2922 23.0762 71.3004 22.6733 71.3028C21.0989 71.3126 19.5237 71.2791 17.951 71.3208C17.3371 71.3372 17.0732 71.2251 17.1088 70.5412C17.17 69.3854 17.1518 68.223 17.1138 67.0646C17.0964 66.5321 17.1957 66.3374 17.8029 66.3636C19.1895 66.4233 20.5802 66.3767 21.9692 66.3857C22.3051 66.3881 22.5087 66.299 22.4673 65.926C22.4392 65.6765 22.5724 65.2944 22.1322 65.319C20.768 65.3942 19.3889 65.094 18.037 65.4744C17.7946 65.602 17.6217 65.7951 17.4935 66.0315C17.146 66.2933 17.1212 66.0838 17.1229 65.7943C17.1287 64.7873 17.1518 63.7803 17.1138 62.7749C17.0956 62.2841 17.2577 62.159 17.7384 62.1672C19.3119 62.1958 20.8871 62.1721 22.4607 62.1819C22.8288 62.1843 23.1035 62.1974 23.1018 61.6813C23.0993 61.1929 22.9372 61.0751 22.4623 61.0808C20.4867 61.1062 18.5111 61.1045 16.5355 61.0825C16.0449 61.0767 15.8273 61.1667 15.8306 61.7222C15.8554 65.0466 15.8529 68.3718 15.8323 71.6971C15.8289 72.21 15.9754 72.3859 16.5065 72.3793C18.574 72.354 20.6431 72.3654 22.7105 72.3728C23.0878 72.3744 23.3509 72.3523 23.3691 71.8558L23.3707 71.8574Z" fill="white"/>
<path d="M77.3171 61.8784C76.9886 61.0948 76.5617 60.8927 75.7336 61.1954C76.3442 61.9324 76.0645 62.6032 75.7377 63.328C74.3859 66.3219 73.0771 69.3347 71.746 72.3573C72.6684 72.6027 73.1598 72.3859 73.5197 71.4689C74.5274 68.8971 75.6691 66.3759 76.8207 63.6863C77.9922 66.3841 79.1479 68.9372 80.2003 71.5319C80.532 72.3491 80.9589 72.6142 81.8251 72.3557C81.7109 72.0751 81.6042 71.797 81.4859 71.5229C80.0919 68.3097 78.6714 65.108 77.3179 61.8784H77.3171Z" fill="white"/>
<path d="M124.197 72.3344C122.693 68.8676 121.172 65.4139 119.706 61.9374C119.391 61.1897 119.004 60.8535 118.11 61.1815C118.812 62.0249 118.347 62.7955 117.977 63.5971C117.326 65.0082 116.711 66.4357 116.086 67.8574C115.427 69.3527 114.774 70.8505 114.119 72.345C115.095 72.6567 115.539 72.3213 115.888 71.4419C116.904 68.8824 118.033 66.3661 119.122 63.8245C119.408 63.9456 119.421 64.2204 119.512 64.429C120.545 66.8029 121.6 69.1687 122.571 71.5679C122.899 72.3769 123.333 72.6485 124.197 72.3352V72.3344Z" fill="white"/>
<path d="M82.4051 17.1744C82.9122 17.0321 83.1877 16.6541 83.1993 16.165C83.2117 15.6725 82.937 15.3036 82.4489 15.1187C82.0915 14.9837 81.7217 15.0034 81.3519 15.0197C78.8236 15.1302 76.2929 15.1997 73.7688 15.3641C71.1983 15.531 68.6246 15.7011 65.8192 16.1609C71.2885 16.8824 76.5262 17.1122 81.7689 17.2668C81.9807 17.2734 82.2007 17.2325 82.4059 17.1752L82.4051 17.1744Z" fill="white"/>
<path d="M93.3901 17.2652C98.6336 17.1138 103.873 16.8807 109.059 16.1469C103.836 15.3886 98.5964 15.1841 93.3545 15.0156C92.61 14.9919 91.9936 15.2537 91.9349 16.115C91.8852 16.8316 92.4428 17.2922 93.3901 17.2652Z" fill="white"/>
<path d="M82.3869 10.9256C83.0992 10.7325 83.4193 9.92511 83.0322 9.32469C82.712 8.82897 82.2156 8.73326 81.6621 8.74962C77.9061 8.86087 74.1518 9.02202 70.4091 9.35741C68.9786 9.48584 67.5284 9.5251 65.9805 9.93657C71.2885 10.5779 76.4641 10.8904 81.6547 10.982C81.8996 10.9861 82.156 10.9885 82.3885 10.9256H82.3869Z" fill="white"/>
<path d="M93.0178 10.9697C93.2933 10.9918 93.5721 10.9795 93.8484 10.9746C98.9314 10.8797 103.999 10.5541 109.04 9.95124C108.703 9.76719 108.309 9.71811 107.917 9.67393C103.23 9.14713 98.5244 8.91236 93.8129 8.76102C93.5059 8.75121 93.1874 8.72667 92.8929 8.79047C92.289 8.92217 91.8927 9.28619 91.9365 9.94225C91.9804 10.5852 92.3808 10.919 93.0178 10.9697Z" fill="white"/>
<path d="M104.839 61.9905C103.822 63.8948 102.711 65.7501 101.643 67.6144C100.582 65.773 99.4559 63.9235 98.4466 62.0142C98.0114 61.1913 97.4911 60.9262 96.5339 61.2117C97.5366 62.9377 98.4549 64.6899 99.5395 66.335C100.619 67.9735 101.283 69.6619 100.985 71.6374C100.898 72.21 101.091 72.4341 101.728 72.417C102.385 72.3998 102.332 72.0088 102.281 71.6259C102.012 69.5915 102.649 67.8393 103.769 66.1476C104.808 64.5787 105.662 62.8903 106.629 61.1994C105.671 60.9058 105.232 61.2567 104.841 61.9905H104.839Z" fill="white"/>
<path d="M56.5442 61.2085C54.0755 61.2232 51.606 61.2249 49.1373 61.2069C48.7038 61.2036 48.5507 61.3099 48.5466 61.7623C48.5416 62.2793 48.8237 62.2711 49.1927 62.2646C49.9331 62.2515 50.6761 62.2956 51.414 62.2498C52.0122 62.213 52.2198 62.3979 52.2025 63.009C52.1611 64.4716 52.1892 65.9367 52.1892 67.4001C52.1892 68.7727 52.1843 70.1446 52.1925 71.5172C52.195 71.9671 51.9965 72.4849 52.8552 72.4759C53.68 72.4669 53.4451 71.9614 53.4467 71.5646C53.4583 68.7588 53.4823 65.9522 53.4335 63.1472C53.4203 62.3914 53.6759 62.1999 54.3766 62.249C55.0832 62.2989 55.7955 62.2515 56.5053 62.2629C56.8759 62.2695 57.1473 62.2654 57.1423 61.7517C57.1382 61.2854 56.9595 61.2044 56.5442 61.2069V61.2085Z" fill="white"/>
<path d="M174.513 61.2118C171.987 61.2232 169.46 61.2249 166.935 61.2118C166.531 61.2093 166.409 61.3435 166.409 61.7378C166.409 62.1353 166.541 62.2752 166.941 62.2654C167.773 62.2449 168.606 62.2891 169.436 62.249C169.97 62.2237 170.115 62.4118 170.105 62.9222C170.074 64.4135 170.094 65.9056 170.094 67.3968C170.094 68.8889 170.106 70.3801 170.087 71.8714C170.082 72.2755 170.158 72.4424 170.629 72.4685C171.276 72.5045 171.383 72.2485 171.378 71.6832C171.353 68.7915 171.383 65.899 171.353 63.0073C171.348 62.411 171.515 62.2081 172.125 62.2466C172.923 62.2965 173.727 62.2384 174.527 62.2654C174.998 62.2809 174.988 62.0102 174.999 61.6821C175.012 61.3247 174.871 61.2101 174.513 61.2118Z" fill="white"/>
<path d="M136.69 85.2174C136.475 85.2109 136.258 85.21 136.045 85.2313C135.72 85.264 135.531 85.4865 135.526 85.7769C135.522 86.0714 135.724 86.2898 136.035 86.3381C136.246 86.3708 136.465 86.3634 136.679 86.3569C141.267 86.2146 145.856 86.0706 150.444 85.9266C151.103 85.9855 151.763 86.0493 152.641 85.6428H150.455C145.866 85.5004 141.278 85.3581 136.69 85.2182V85.2174Z" fill="white"/>
<path d="M39.0424 85.2534C38.7719 85.2092 38.4914 85.2125 38.2159 85.2207C33.7203 85.3565 29.2247 85.4963 24.7291 85.6354C23.4873 85.5667 22.2505 85.6313 21.0162 85.7581C22.2638 85.9258 23.4965 86.0133 24.7399 85.9324C29.2355 86.0731 33.7311 86.2154 38.2267 86.3528C38.5022 86.361 38.7851 86.3651 39.0524 86.3111C39.3121 86.2579 39.4826 86.0403 39.4735 85.7802C39.4644 85.5283 39.3188 85.2976 39.0424 85.2534Z" fill="white"/>
<path d="M106.035 85.1527C106.575 84.3617 106.194 83.3302 105.271 83.1167C104.406 82.9155 103.409 82.8001 102.649 83.1535C102.211 83.3572 102.557 84.3347 102.506 84.9621C102.485 85.2345 102.503 85.5102 102.503 85.7843C102.503 86.5156 102.503 87.2461 102.503 87.9774C102.503 88.2539 102.467 88.5533 102.898 88.5295C103.695 88.487 104.503 88.6441 105.288 88.4134C106.438 88.0755 106.845 86.896 106.092 85.9749C105.839 85.6656 105.785 85.5176 106.034 85.1527H106.035ZM103.079 83.7727C103.296 83.2844 103.795 83.6599 104.078 83.5372C104.266 83.5372 104.389 83.538 104.513 83.5372C105.167 83.5322 105.741 83.7163 105.729 84.464C105.717 85.1585 105.143 85.3188 104.544 85.3483C104.421 85.354 104.297 85.3499 104.173 85.3507C103.146 85.3589 102.668 84.6971 103.079 83.7727ZM105.884 87.2109C105.628 87.988 104.989 88.0256 104.317 87.9986C104.256 87.9962 104.195 87.9986 104.071 87.9986C103.79 87.8702 103.2 88.2629 103.104 87.7663C102.988 87.17 102.766 86.2407 103.211 85.9659C103.796 85.6051 104.708 85.6861 105.412 86.0501C105.839 86.271 106.054 86.6964 105.884 87.2117V87.2109Z" fill="white"/>
<path d="M113.986 83.0055C112.366 83.0186 111.033 84.2898 111.055 85.799C111.076 87.3017 112.458 88.5688 114.048 88.5451C115.679 88.5206 116.973 87.2715 116.959 85.7369C116.944 84.1941 115.636 82.9924 113.986 83.0055ZM114.012 87.9979C112.684 87.9946 111.587 86.9483 111.622 85.7172C111.656 84.4804 112.776 83.5028 114.112 83.5446C115.416 83.5855 116.412 84.5769 116.39 85.8137C116.369 87.0318 115.315 88.0003 114.012 87.9979Z" fill="white"/>
<path d="M60.9098 83.0022C59.2858 82.9875 57.9348 84.2178 57.9125 85.7328C57.8902 87.2322 59.2296 88.5198 60.837 88.5443C62.4561 88.5688 63.7955 87.3344 63.8104 85.8039C63.8253 84.2513 62.5479 83.0177 60.9098 83.0022ZM60.9165 87.9995C59.5944 88.0208 58.4776 86.9958 58.4792 85.7638C58.4809 84.5679 59.544 83.5642 60.8296 83.5437C62.1831 83.5225 63.2429 84.4992 63.2429 85.7679C63.2429 86.995 62.217 87.979 60.9165 87.9995Z" fill="white"/>
<path d="M87.0769 84.3045C87.2738 84.4705 87.4483 84.7028 87.675 84.4435C87.857 84.2349 87.6245 84.0517 87.4756 83.9085C86.88 83.3359 86.19 82.9744 85.4752 83.0038C83.8934 82.9964 82.7335 83.8545 82.3918 85.1781C82.1047 86.2898 82.7244 87.5888 83.8206 88.1762C85.0251 88.8216 86.597 88.586 87.4698 87.6191C87.6105 87.4628 87.9158 87.3091 87.6014 87.0432C87.3383 86.8207 87.2398 87.0939 87.0926 87.2191C86.9296 87.3573 86.7749 87.5095 86.5962 87.6248C85.6547 88.2351 84.3046 88.0829 83.5451 87.2911C82.7451 86.4567 82.6739 85.3712 83.3589 84.4673C84.25 83.2918 85.7879 83.2165 87.0769 84.3036V84.3045Z" fill="white"/>
<path d="M71.5475 85.6305C71.1669 85.4342 70.7657 85.2755 70.3892 85.0701C69.9615 84.837 69.6025 84.5392 69.8722 83.9813C70.1286 83.4513 70.601 83.5216 71.0709 83.5854C71.3051 83.6173 71.4441 83.7736 71.6054 83.9118C71.7692 84.0525 71.9528 84.037 72.0877 83.8742C72.2151 83.7204 72.0993 83.5961 71.9876 83.484C71.4763 82.9719 70.8318 82.9204 70.1841 83.057C69.6339 83.1731 69.2616 83.5617 69.1797 84.1261C69.0788 84.8247 69.4717 85.2795 70.0533 85.5928C70.5108 85.8391 70.9915 86.0452 71.4474 86.2947C71.8279 86.5025 72.0538 86.8182 71.9371 87.2747C71.8147 87.7541 71.4548 87.9488 70.9882 87.9962C70.4389 88.0518 69.945 87.9365 69.5644 87.5152C69.3915 87.3238 69.2136 87.107 68.9745 87.3851C68.7354 87.6641 69.0564 87.8081 69.2012 87.9569C69.6322 88.4003 70.1915 88.5435 70.9692 88.5484C71.5764 88.5034 72.2954 88.3193 72.5295 87.4702C72.7735 86.5876 72.2978 86.019 71.5458 85.6305H71.5475Z" fill="white"/>
<path d="M124.561 85.6019C124.095 85.3712 123.627 85.1438 123.176 84.8845C122.872 84.7102 122.807 84.4051 122.892 84.0845C122.98 83.7532 123.225 83.5855 123.564 83.5519C123.977 83.5118 124.368 83.5634 124.658 83.8947C124.828 84.0877 125.001 84.0084 125.142 83.8947C125.294 83.772 125.213 83.6337 125.096 83.5135C124.562 82.9719 123.893 82.9073 123.211 83.0668C122.706 83.1846 122.352 83.5315 122.271 84.0779C122.168 84.7732 122.484 85.2534 123.085 85.5708C123.572 85.8285 124.079 86.051 124.557 86.3242C124.889 86.5148 125.134 86.8003 125.029 87.2248C124.924 87.6527 124.623 87.9071 124.194 87.9758C123.624 88.0666 123.087 87.9897 122.666 87.5406C122.502 87.3663 122.334 87.0948 122.073 87.3573C121.751 87.6821 122.153 87.8343 122.315 87.9962C122.728 88.4061 123.263 88.5394 123.93 88.5459C124.67 88.5296 125.41 88.2891 125.625 87.4105C125.837 86.5369 125.321 85.9757 124.562 85.6011L124.561 85.6019Z" fill="white"/>
<path d="M95.4824 83.5355C95.3757 83.2918 95.3128 82.9564 94.9397 83.0431C94.4871 83.1486 94.9546 83.4333 94.8586 83.6247C94.7634 83.8145 94.6956 84.0165 94.6104 84.2112C94.0859 85.4104 93.5547 86.6064 93.0385 87.8089C92.945 88.0273 92.6307 88.3144 92.9632 88.4936C93.3388 88.6956 93.4811 88.325 93.6019 88.042C94.1041 86.869 94.6046 85.6951 95.192 84.3208C95.805 85.7213 96.3461 86.9418 96.8706 88.1688C96.9815 88.4273 97.1312 88.6261 97.4125 88.5017C97.7219 88.3651 97.477 88.1394 97.4067 87.9741C96.7722 86.4919 96.126 85.0137 95.4824 83.5347V83.5355Z" fill="white"/>
<path d="M52.5623 87.9995C52.0403 87.988 51.515 87.9643 50.9954 88.0036C50.4775 88.0429 50.3079 87.8735 50.3228 87.3492C50.3592 86.0747 50.336 84.7986 50.3311 83.5225C50.3311 83.3171 50.3609 83.0807 50.0291 83.0734C49.6932 83.0668 49.7255 83.3016 49.7247 83.5069C49.7205 84.266 49.723 85.0252 49.723 85.988C49.8322 86.68 49.3085 87.8792 49.9166 88.3913C50.4394 88.8314 51.6142 88.5148 52.5011 88.5328C52.5317 88.5328 52.5632 88.5345 52.5929 88.5328C52.7948 88.5165 53.062 88.5901 53.0438 88.2482C53.0256 87.9111 52.7526 88.0044 52.5607 88.0003L52.5623 87.9995Z" fill="white"/>
<path d="M20.9657 85.7641C20.9825 85.7624 20.9994 85.7608 21.0162 85.7591C21.001 85.7574 20.9859 85.7557 20.9707 85.7532C20.9691 85.7565 20.9674 85.7599 20.9657 85.7641Z" fill="white"/>
<path d="M20.9731 85.7488C20.9775 85.7392 20.9792 85.7366 20.9731 85.7488V85.7488Z" fill="white"/>
</svg>
