<svg width="35" height="27" viewBox="0 0 35 27" fill="none" xmlns="http://www.w3.org/2000/svg">
<path d="M30.625 0H4.375C3.21506 0.00120492 2.10298 0.449199 1.28278 1.24568C0.462576 2.04217 0.0012408 3.12209 0 4.24849V22.4563C0.0012408 23.5827 0.462576 24.6626 1.28278 25.4591C2.10298 26.2556 3.21506 26.7036 4.375 26.7048H30.625C31.7849 26.7036 32.897 26.2556 33.7172 25.4591C34.5374 24.6626 34.9988 23.5827 35 22.4563V4.24849C34.9988 3.12209 34.5374 2.04217 33.7172 1.24568C32.897 0.449199 31.7849 0.00120492 30.625 0ZM29.5172 7.02745L18.2672 15.5244C18.0478 15.69 17.7779 15.7799 17.5 15.7799C17.2221 15.7799 16.9522 15.69 16.7328 15.5244L5.48281 7.02745C5.35064 6.93052 5.23961 6.80905 5.1562 6.67009C5.07278 6.53113 5.01864 6.37746 4.99691 6.21801C4.97519 6.05856 4.98631 5.8965 5.02964 5.74126C5.07296 5.58601 5.14763 5.44068 5.2493 5.3137C5.35096 5.18673 5.4776 5.08064 5.62186 5.0016C5.76611 4.92256 5.92511 4.87215 6.0896 4.85329C6.25409 4.83444 6.4208 4.84752 6.58004 4.89178C6.73928 4.93603 6.88787 5.01058 7.01719 5.11108L17.5 13.0284L27.9828 5.11108C28.2449 4.91885 28.5744 4.83454 28.9001 4.87639C29.2257 4.91823 29.5213 5.08286 29.7229 5.33467C29.9245 5.58649 30.016 5.90525 29.9775 6.22203C29.939 6.53881 29.7736 6.82814 29.5172 7.02745Z" fill="#053A55"/>
</svg>
