<svg width="113" height="112" viewBox="0 0 113 112" fill="none" xmlns="http://www.w3.org/2000/svg">
<path d="M61.7696 104.018C60.8823 104.959 60.2122 106.082 59.7595 107.259L74.8624 111.442V98.748C74.1199 98.911 73.3775 99.074 72.6531 99.237C68.7053 100.106 64.5222 101.084 61.7696 104.018Z" fill="#CFCECE"/>
<path d="M95.1263 20.282C95.1263 9.0907 86.0537 0 74.8443 0C63.6348 0 54.5623 9.07259 54.5623 20.282C54.5623 31.4734 74.8443 56.337 74.8443 56.337C74.8443 56.337 95.1263 31.4734 95.1263 20.282ZM65.3009 20.282C65.3009 15.0123 69.5746 10.7386 74.8443 10.7386C80.114 10.7386 84.3877 15.0123 84.3877 20.282C84.3877 25.5517 80.114 29.8255 74.8443 29.8255C69.5746 29.8255 65.3009 25.5517 65.3009 20.282Z" fill="#CFCECE"/>
<path d="M78.4841 57.6039V94.2565L86.5426 92.4999C90.7258 91.5944 91.3958 90.526 91.4864 90.1095C91.6312 89.4395 91.0336 88.2262 90.4542 87.031C89.7479 85.5823 88.9511 83.9525 88.6976 81.9967C87.8646 75.7129 93.2429 70.5337 98.9291 69.1393C100.559 68.7409 102.334 68.5599 104.362 68.5599C106.064 68.5599 107.73 68.6866 109.342 68.8134C110.32 68.8858 111.298 68.9764 112.275 69.0126V14.3597L98.6575 18.1264C98.7299 18.8327 98.7662 19.557 98.7662 20.2814C98.7662 31.4546 82.7035 52.3161 78.4841 57.6039Z" fill="#CFCECE"/>
<path d="M0 63.3269C0.162981 63.3631 0.307852 63.3812 0.470833 63.4174C3.15096 64.1961 5.32403 66.1338 7.69631 67.6368C10.0686 69.1399 13.0203 70.2626 15.6099 69.2123C17.7468 68.3431 19.0868 66.2424 20.1915 64.2142C22.2559 60.3751 23.9944 56.3731 25.3525 52.2261C26.3666 49.1838 27.4351 45.725 30.3144 44.2944C31.4009 43.7511 32.5961 43.5881 33.8094 43.6968V15.3744L0 24.7367V63.3269Z" fill="#CFCECE"/>
<path d="M33.1213 47.4452C32.6505 47.4452 32.2521 47.5176 31.9261 47.6987C30.4774 48.4231 29.6082 51.0127 28.8657 53.3125L28.7933 53.5298C27.3627 57.8578 25.5336 62.0953 23.3787 66.0974C21.9843 68.6689 20.1553 71.4577 16.9681 72.7434C15.8635 73.1961 14.6683 73.4134 13.4369 73.4134C10.9922 73.4134 8.42068 72.5623 5.75867 70.8601C5.07053 70.4255 4.4005 69.9546 3.74857 69.4838C2.46284 68.5783 1.23143 67.7453 0.0181274 67.2745V111.641L33.8275 102.279V47.4814L33.5197 47.4633C33.3748 47.4452 33.2481 47.4452 33.1213 47.4452Z" fill="#CFCECE"/>
<path d="M99.7803 72.6717C95.6515 73.6677 91.7218 77.3257 92.2832 81.527C92.7178 84.8047 95.7239 87.6478 95.0177 90.8712C94.3114 94.0765 90.5085 95.3441 87.3032 96.0503C84.3515 96.6842 81.4178 97.3361 78.4661 97.9699V110.447L112.275 101.085V72.6536C108.092 72.4725 103.837 71.6757 99.7803 72.6717Z" fill="#CFCECE"/>
<path d="M61.7334 44.6025C58.6911 49.5463 53.5481 52.7154 48.3509 52.7154C47.6265 52.7154 46.9021 52.661 46.1959 52.5343C43.3709 52.0634 41.0167 50.7053 38.9342 49.5101C38.4271 49.2203 37.9382 48.9487 37.4312 48.6771V101.084L56.2464 106.3L56.3912 105.956C57.0432 104.272 57.9667 102.787 59.1438 101.537C62.7656 97.6799 68.0353 96.539 71.8744 95.706L74.8624 95.0541V62.0596L72.0555 58.6189C71.0414 57.3875 66.4055 51.6288 61.7334 44.6025Z" fill="#CFCECE"/>
<path d="M46.8116 48.966C51.7734 49.8171 56.7172 46.4126 59.1076 41.9759C59.2524 41.7043 59.3792 41.4145 59.506 41.1429C54.9606 33.8631 50.9585 25.8589 50.9585 20.2814C50.9585 19.557 51.0129 18.8508 51.0672 18.1445L37.4312 14.3597V44.6379C37.902 44.8371 38.3547 45.0363 38.7893 45.2717C41.4151 46.648 43.8961 48.477 46.8116 48.966Z" fill="#CFCECE"/>
</svg>
