<svg width="127" height="32" viewBox="0 0 127 32" fill="none" xmlns="http://www.w3.org/2000/svg">
<g opacity="0.6">
<path d="M123.28 23.6991C108.129 23.6991 114.456 4.67434 123.188 11.6833C123.188 11.6833 124.833 0.91925 114.203 0.91925C100.536 0.91925 94.2085 23.6991 82.1864 23.6991C67.0354 23.6991 73.3626 4.67434 82.0943 11.6833C82.0943 11.6833 83.7394 0.91925 73.1096 0.91925C59.4424 0.91925 53.1153 23.6991 41.0932 23.6991C25.9422 23.6991 32.2694 4.67434 41.0012 11.6833C41.0012 11.6833 42.6462 0.91925 32.0164 0.91925C18.3493 0.91925 12.0221 23.6991 0 23.6991V31.0591H127V23.6991H123.28Z" fill="#CFCECE"/>
</g>
</svg>
