<svg width="113" height="113" viewBox="0 0 113 113" fill="none" xmlns="http://www.w3.org/2000/svg">
<path d="M79.4382 22H60.2935C59.6984 21.9996 59.1273 22.2347 58.705 22.6541L20.4312 60.9185C19.5934 61.7605 19.123 62.8999 19.123 64.0877C19.123 65.2755 19.5934 66.415 20.4312 67.257L38.6524 85.4781C39.4946 86.3161 40.6343 86.7864 41.8224 86.7864C43.0105 86.7864 44.1502 86.3161 44.9924 85.4781L83.2552 47.2293C83.6746 46.807 83.9098 46.2359 83.9093 45.6408V26.4852C83.9122 25.8966 83.7986 25.3132 83.5751 24.7686C83.3516 24.2241 83.0226 23.7291 82.607 23.3122C82.1915 22.8954 81.6975 22.5648 81.1537 22.3396C80.6098 22.1144 80.0268 21.999 79.4382 22Z" stroke="white" stroke-width="4.98356" stroke-linecap="round" stroke-linejoin="round"/>
<path d="M71.4504 39.4426C70.4647 39.4426 69.5012 39.1503 68.6816 38.6027C67.8621 38.0551 67.2233 37.2768 66.8462 36.3662C66.469 35.4555 66.3703 34.4535 66.5626 33.4868C66.7548 32.5201 67.2295 31.6321 67.9265 30.9351C68.6234 30.2382 69.5114 29.7635 70.4781 29.5712C71.4448 29.3789 72.4469 29.4776 73.3575 29.8548C74.2681 30.232 75.0464 30.8708 75.594 31.6903C76.1416 32.5099 76.4339 33.4734 76.4339 34.459C76.4339 35.7808 75.9089 37.0483 74.9743 37.9829C74.0397 38.9175 72.7721 39.4426 71.4504 39.4426Z" fill="white"/>
<path d="M52.4502 91.77L93.2531 50.9671C93.456 50.7624 93.6156 50.5191 93.7227 50.2516C93.8297 49.9841 93.8818 49.6978 93.8761 49.4097V29.4755" stroke="white" stroke-width="4.98356" stroke-linecap="round" stroke-linejoin="round"/>
<circle cx="56.5" cy="56.5" r="55.9205" stroke="white" stroke-width="1.15897"/>
</svg>
