<svg width="39" height="47" viewBox="0 0 39 47" fill="none" xmlns="http://www.w3.org/2000/svg">
<path d="M36.7738 0.00671387H1.37695C0.616508 0.00671387 0 0.61648 0 1.36861V45.1309C0 45.6028 0.247117 46.0412 0.653043 46.2894C1.05906 46.5376 1.56596 46.56 1.99282 46.3489L19.0754 37.9011L36.158 46.3489C36.3524 46.4451 36.5633 46.4928 36.7738 46.4928C37.0255 46.4928 37.2767 46.4245 37.4978 46.2894C37.9037 46.0413 38.1509 45.6028 38.1509 45.1309V1.36861C38.1508 0.61648 37.5342 0.00671387 36.7738 0.00671387ZM28.8858 17.4556L24.9798 21.2214L25.8891 26.4648C25.9117 26.5627 25.9236 26.6645 25.9236 26.7692C25.9236 27.5204 25.3086 28.1296 24.5492 28.131C24.5477 28.131 24.5462 28.131 24.5446 28.131C24.3254 28.131 24.1056 28.0794 23.9041 27.9746L19.0754 25.4644L14.2469 27.9746C14.0455 28.0793 13.8254 28.131 13.6063 28.131C13.3208 28.131 13.0367 28.0433 12.7968 27.8709C12.3728 27.5661 12.1604 27.0498 12.2491 26.5389L13.1715 21.2215L9.26496 17.4557C8.88961 17.0939 8.75448 16.5526 8.9165 16.0596C9.07852 15.5665 9.50942 15.2071 10.0281 15.1327L15.4266 14.3567L17.8404 9.51847C18.0724 9.05361 18.551 8.75926 19.0752 8.75926C19.5994 8.75926 20.0781 9.05352 20.31 9.51838L22.7243 14.3567L28.1225 15.1327C28.6412 15.2071 29.0721 15.5665 29.2341 16.0595C29.3962 16.5525 29.2611 17.0937 28.8858 17.4556Z" fill="#CFCECE"/>
</svg>
