<svg width="32" height="32" viewBox="0 0 32 32" fill="none" xmlns="http://www.w3.org/2000/svg">
<path d="M5.66664 6.79689C3.33962 9.39584 2.03679 12.7521 2.00089 16.2404C1.91245 24.2112 8.42026 30.7655 16.3911 30.7805C24.3506 30.7955 30.7812 24.3477 30.7812 16.3903C30.7812 8.55519 24.5193 2.1793 16.7283 2.00017C16.6845 1.99876 16.6408 2.0062 16.5999 2.02203C16.559 2.03787 16.5217 2.06178 16.4902 2.09235C16.4587 2.12291 16.4337 2.1595 16.4167 2.19994C16.3996 2.24037 16.3909 2.28382 16.3911 2.3277V8.59566" stroke="white" stroke-width="2.39836" stroke-linecap="round" stroke-linejoin="round"/>
<path d="M14.6957 18.0864L8.77473 9.6172C8.69282 9.49986 8.65482 9.35743 8.6674 9.21488C8.67997 9.07233 8.74232 8.93875 8.84351 8.83756C8.9447 8.73637 9.07828 8.67402 9.22083 8.66145C9.36338 8.64887 9.50581 8.68687 9.62315 8.76878L18.0924 14.6897C18.6118 15.0639 18.9631 15.6275 19.0703 16.2586C19.1774 16.8898 19.0318 17.5377 18.6649 18.0624C18.298 18.587 17.7393 18.946 17.1097 19.0619C16.4801 19.1778 15.8302 19.0411 15.3005 18.6815C15.0663 18.5192 14.8618 18.3179 14.6957 18.0864Z" fill="white"/>
</svg>
