<svg width="211" height="40" viewBox="0 0 211 40" fill="none" xmlns="http://www.w3.org/2000/svg">
<path d="M18.2511 0L22.3487 13.5339H35.6088L24.8811 21.8984L28.9788 35.4323L18.2511 27.0679L7.52335 35.4323L11.621 21.8984L0.89327 13.5339H14.1534L18.2511 0Z" fill="#053A55"/>
<path d="M61.8755 0L65.9731 13.5339H79.2333L68.5056 21.8984L72.6032 35.4323L61.8755 27.0679L51.1478 35.4323L55.2454 21.8984L44.5177 13.5339H57.7779L61.8755 0Z" fill="#053A55"/>
<path d="M105.5 0L109.598 13.5339H122.858L112.13 21.8984L116.228 35.4323L105.5 27.0679L94.7723 35.4323L98.8699 21.8984L88.1422 13.5339H101.402L105.5 0Z" fill="#053A55"/>
<path d="M149.124 0L153.222 13.5339H166.482L155.755 21.8984L159.852 35.4323L149.124 27.0679L138.397 35.4323L142.494 21.8984L131.767 13.5339H145.027L149.124 0Z" fill="#053A55"/>
<path d="M192.749 0L196.847 13.5339H210.107L199.379 21.8984L203.477 35.4323L192.749 27.0679L182.021 35.4323L186.119 21.8984L175.391 13.5339H188.651L192.749 0Z" fill="#053A55"/>
</svg>
