<svg width="97" height="19" viewBox="0 0 97 19" fill="none" xmlns="http://www.w3.org/2000/svg">
<path d="M8.87399 0.843262L10.7383 7.00079H16.7713L11.8905 10.8064L13.7548 16.9639L8.87399 13.1583L3.99321 16.9639L5.8575 10.8064L0.976723 7.00079H7.0097L8.87399 0.843262Z" fill="white"/>
<path d="M28.7216 0.843262L30.5859 7.00079H36.6189L31.7381 10.8064L33.6024 16.9639L28.7216 13.1583L23.8409 16.9639L25.7052 10.8064L20.8244 7.00079H26.8574L28.7216 0.843262Z" fill="white"/>
<path d="M48.5693 0.843262L50.4336 7.00079H56.4666L51.5858 10.8064L53.4501 16.9639L48.5693 13.1583L43.6885 16.9639L45.5528 10.8064L40.672 7.00079H46.705L48.5693 0.843262Z" fill="white"/>
<path d="M68.417 0.843262L70.2812 7.00079H76.3142L71.4334 10.8064L73.2977 16.9639L68.417 13.1583L63.5362 16.9639L65.4005 10.8064L60.5197 7.00079H66.5527L68.417 0.843262Z" fill="white"/>
<path d="M88.2646 0.843262L90.1289 7.00079H96.1619L91.2811 10.8064L93.1454 16.9639L88.2646 13.1583L83.3838 16.9639L85.2481 10.8064L80.3673 7.00079H86.4003L88.2646 0.843262Z" fill="white"/>
</svg>
