<svg width="46" height="47" viewBox="0 0 46 47" fill="none" xmlns="http://www.w3.org/2000/svg">
<path d="M21.6125 23.7943C28.0173 23.7943 33.2094 18.4717 33.2094 11.906C33.2094 5.34023 28.0173 0.0176392 21.6125 0.0176392C15.2076 0.0176392 10.0155 5.34023 10.0155 11.906C10.0155 18.4717 15.2076 23.7943 21.6125 23.7943Z" fill="#CFCECE"/>
<path fill-rule="evenodd" clip-rule="evenodd" d="M30.3565 24.687L28.8763 29.358H24.0857C22.7848 29.358 21.6335 30.214 21.2329 31.4828C20.8301 32.7494 21.2708 34.1371 22.323 34.9196L26.1985 37.8074L24.7183 42.4784C24.3156 43.745 24.7562 45.1327 25.8063 45.9152C26.8585 46.6998 28.2817 46.6998 29.3339 45.9152L33.2094 43.0296L37.0849 45.9152C38.137 46.6998 39.5603 46.6998 40.6124 45.9152C41.6625 45.1327 42.1032 43.745 41.7004 42.4784L40.2203 37.8074L44.0957 34.9196C45.1479 34.1371 45.5886 32.7494 45.1859 31.4828C44.7852 30.214 43.634 29.358 42.333 29.358H37.5424L36.0622 24.687C35.6616 23.4203 34.5082 22.5622 33.2094 22.5622C31.9105 22.5622 30.7571 23.4203 30.3565 24.687Z" fill="#CFCECE"/>
<path fill-rule="evenodd" clip-rule="evenodd" d="M22.5424 44.3546C22.3969 43.5245 22.4454 42.6513 22.7111 41.8105L23.7189 38.633L21.0833 36.6682C19.2931 35.3346 18.5425 32.972 19.2278 30.8148C19.9109 28.6555 21.8719 27.1965 24.0858 27.1965H27.3435L27.6851 26.1222C25.7621 25.8217 23.7232 25.6575 21.6125 25.6575C14.6079 25.6575 8.40674 27.4537 4.55655 30.1448C1.61936 32.1982 0 34.8072 0 37.5458V40.68C0 41.6548 0.377428 42.5908 1.05005 43.2781C1.72267 43.9677 2.63356 44.3546 3.58451 44.3546H22.5424Z" fill="#CFCECE"/>
</svg>
