<svg width="44" height="44" viewBox="0 0 44 44" fill="none" xmlns="http://www.w3.org/2000/svg">
<rect width="43.7417" height="43.7417" rx="6.15118" fill="#053A55"/>
<path d="M8.76523 30.5182L4.12451 17.6485H7.64093L11.4923 28.7241H9.81776L13.8365 17.6485H16.9941L20.8933 28.7241H19.2188L23.1897 17.6485H26.4909L21.8262 30.5182H18.2141L14.7934 21.0214H15.8938L12.3534 30.5182H8.76523ZM34.0948 30.7095C32.7074 30.7095 31.4715 30.4304 30.387 29.8723C29.3026 29.2982 28.4494 28.5088 27.8275 27.5041C27.2215 26.4994 26.9185 25.3591 26.9185 24.0833C26.9185 22.7916 27.2215 21.6513 27.8275 20.6626C28.4494 19.6579 29.3026 18.8765 30.387 18.3183C31.4715 17.7442 32.7074 17.4572 34.0948 17.4572C35.4504 17.4572 36.6305 17.7442 37.6352 18.3183C38.6399 18.8765 39.3814 19.6818 39.8599 20.7344L36.9654 22.2892C36.6305 21.6832 36.2079 21.2367 35.6976 20.9497C35.2032 20.6626 34.661 20.5191 34.0709 20.5191C33.433 20.5191 32.8589 20.6626 32.3486 20.9497C31.8383 21.2367 31.4316 21.6434 31.1286 22.1696C30.8416 22.6959 30.698 23.3338 30.698 24.0833C30.698 24.8329 30.8416 25.4708 31.1286 25.997C31.4316 26.5233 31.8383 26.93 32.3486 27.217C32.8589 27.5041 33.433 27.6476 34.0709 27.6476C34.661 27.6476 35.2032 27.5121 35.6976 27.2409C36.2079 26.9539 36.6305 26.4994 36.9654 25.8774L39.8599 27.4562C39.3814 28.4928 38.6399 29.2982 37.6352 29.8723C36.6305 30.4304 35.4504 30.7095 34.0948 30.7095Z" fill="white"/>
</svg>
