<svg width="22" height="22" viewBox="0 0 22 22" fill="none" xmlns="http://www.w3.org/2000/svg">
<rect width="21.5746" height="21.9198" rx="3.03393" fill="white"/>
<path d="M4.32222 14.7666L2.03328 8.41894H3.76768L5.66726 13.8817H4.84136L6.82353 8.41894H8.38095L10.3041 13.8817H9.47822L11.4368 8.41894H13.065L10.7643 14.7666H8.98268L7.29547 10.0825H7.83821L6.09201 14.7666H4.32222ZM16.8155 14.861C16.1312 14.861 15.5216 14.7233 14.9867 14.448C14.4518 14.1649 14.031 13.7755 13.7242 13.28C13.4254 12.7844 13.2759 12.222 13.2759 11.5928C13.2759 10.9556 13.4254 10.3932 13.7242 9.90557C14.031 9.41002 14.4518 9.0246 14.9867 8.7493C15.5216 8.46613 16.1312 8.32455 16.8155 8.32455C17.4841 8.32455 18.0661 8.46613 18.5617 8.7493C19.0572 9.0246 19.423 9.42182 19.659 9.94096L18.2313 10.7079C18.0661 10.409 17.8577 10.1887 17.606 10.0471C17.3622 9.90557 17.0947 9.83477 16.8037 9.83477C16.4891 9.83477 16.2059 9.90557 15.9542 10.0471C15.7025 10.1887 15.5019 10.3893 15.3525 10.6489C15.2109 10.9084 15.1401 11.2231 15.1401 11.5928C15.1401 11.9625 15.2109 12.2771 15.3525 12.5367C15.5019 12.7962 15.7025 12.9968 15.9542 13.1384C16.2059 13.28 16.4891 13.3508 16.8037 13.3508C17.0947 13.3508 17.3622 13.2839 17.606 13.1502C17.8577 13.0086 18.0661 12.7844 18.2313 12.4777L19.659 13.2564C19.423 13.7677 19.0572 14.1649 18.5617 14.448C18.0661 14.7233 17.4841 14.861 16.8155 14.861Z" fill="#053A55"/>
</svg>
