<svg width="40" height="40" viewBox="0 0 40 40" fill="none" xmlns="http://www.w3.org/2000/svg">
<path d="M17.9238 24.1015L24.2877 20.4363L17.9238 16.771V24.1015Z" fill="white"/>
<path d="M20.3605 0.87207C9.55725 0.87207 0.796509 9.63281 0.796509 20.436C0.796509 31.2393 9.55725 40 20.3605 40C31.1637 40 39.9244 31.2393 39.9244 20.436C39.9244 9.63281 31.1637 0.87207 20.3605 0.87207ZM32.585 20.456C32.585 20.456 32.585 24.4237 32.0817 26.3369C31.7996 27.3841 30.9738 28.2099 29.9266 28.4917C28.0134 28.9953 20.3605 28.9953 20.3605 28.9953C20.3605 28.9953 12.7276 28.9953 10.7943 28.4717C9.74711 28.1899 8.92139 27.3638 8.63929 26.3166C8.13568 24.4237 8.13568 20.436 8.13568 20.436C8.13568 20.436 8.13568 16.4687 8.63929 14.5554C8.92109 13.5082 9.76711 12.6622 10.7943 12.3804C12.7076 11.8768 20.3605 11.8768 20.3605 11.8768C20.3605 11.8768 28.0134 11.8768 29.9266 12.4004C30.9738 12.6822 31.7996 13.5082 32.0817 14.5554C32.6053 16.4687 32.585 20.456 32.585 20.456Z" fill="white"/>
</svg>
