<svg width="42" height="41" viewBox="0 0 42 41" fill="none" xmlns="http://www.w3.org/2000/svg">
<path d="M18.4639 24.3409L25.1322 20.5003L18.4639 16.6597V24.3409Z" fill="#053A55"/>
<path d="M21.0166 0C9.69649 0 0.516602 9.17989 0.516602 20.5C0.516602 31.8201 9.69649 41 21.0166 41C32.3367 41 41.5166 31.8201 41.5166 20.5C41.5166 9.17989 32.3367 0 21.0166 0ZM33.826 20.521C33.826 20.521 33.826 24.6784 33.2986 26.6832C33.003 27.7805 32.1378 28.6458 31.0404 28.941C29.0357 29.4687 21.0166 29.4687 21.0166 29.4687C21.0166 29.4687 13.0185 29.4687 10.9928 28.9201C9.89544 28.6248 9.03022 27.7593 8.73462 26.6619C8.20692 24.6784 8.20692 20.5 8.20692 20.5C8.20692 20.5 8.20692 16.3428 8.73462 14.338C9.02991 13.2407 9.9164 12.3542 10.9928 12.059C12.9975 11.5312 21.0166 11.5312 21.0166 11.5312C21.0166 11.5312 29.0357 11.5312 31.0404 12.0799C32.1378 12.3752 33.003 13.2407 33.2986 14.338C33.8472 16.3428 33.826 20.521 33.826 20.521Z" fill="#053A55"/>
</svg>
